# xmcd
#
# Track frame offsets:
#	150
#	39239
#	65368
#	88453
#	119300
#	130708
#	153393
#	187941
#	201047
#	223379
#	241407
#	272058
#
# Disc length: 4098 seconds
# Revision: 0
# Processed by: cddbd v1.5.1PL2 Copyright (c) Steve Scherf et al.
# Submitted via: cdrLabel 7.0
#
DISCID=ac10000c
DTITLE=Walter Trout - Walter Trout - Full Circle
DYEAR=2006
DGENRE=
TTITLE0=She Takes More Than She Gives (Feat. John Mayall)
TTITLE1=Working Overtime (Feat. Jeff Healey)
TTITLE2=Firehouse Mama (Feat. Eric Sardinas)
TTITLE3=Who's Listenin' In (Feat. Coco Montoya)
TTITLE4=Slap Happy (Feat. Junior Watson)
TTITLE5=Wrapped Around Your Finger (Feat. Guitar Shorty)
TTITLE6=A Busy Man (Feat. James Harman)
TTITLE7=Highway Song (Feat. John Mayall)
TTITLE8=When Will It Ever Change (Feat. Bernard Allison)
TTITLE9=Can't Help Falling Apart (Feat. Finis Tasby)
TTITLE10=After Hours (Feat. Deacon Jones)
TTITLE11=Clouds On The Horizon (Feat. Joe Bonamassa)
EXTD=
EXTT0=
EXTT1=
EXTT2=
EXTT3=
EXTT4=
EXTT5=
EXTT6=
EXTT7=
EXTT8=
EXTT9=
EXTT10=
EXTT11=
PLAYORDER=
